
<svg width="32" height="32" viewBox="0 0 32 32" fill="none" xmlns="http://www.w3.org/2000/svg">
  <rect width="32" height="32" rx="16" fill="#F97316"/>
  <path d="M24 15V12.5C24 12.1022 23.842 11.7206 23.5607 11.4393C23.2794 11.158 22.8978 11 22.5 11H9.5C9.10218 11 8.72064 11.158 8.43934 11.4393C8.15804 11.7206 8 12.1022 8 12.5V15C8.53043 15 9.03914 15.2107 9.41421 15.5858C9.78929 15.9609 10 16.4696 10 17C10 17.5304 9.78929 18.0391 9.41421 18.4142C9.03914 18.7893 8.53043 19 8 19V21.5C8 21.8978 8.15804 22.2794 8.43934 22.5607C8.72064 22.842 9.10218 23 9.5 23H22.5C22.8978 23 23.2794 22.842 23.5607 22.5607C23.842 22.2794 24 21.8978 24 21.5V19C23.4696 19 22.9609 18.7893 22.5858 18.4142C22.2107 18.0391 22 17.5304 22 17C22 16.4696 22.2107 15.9609 22.5858 15.5858C22.9609 15.2107 23.4696 15 24 15Z" stroke="white" stroke-width="2" stroke-linecap="round" stroke-linejoin="round"/>
</svg>
